# Blender v2.83.5 OBJ File: 'tubefinal.blend'
# www.blender.org
mtllib deposit.mtl
o deposit_Cube.003
v -0.889386 -0.774217 0.221444
v -0.889386 -0.137453 0.221444
v -0.889386 -0.774217 -0.221444
v -0.889386 -0.137453 -0.221444
v -0.944962 -0.137453 -0.221444
v -0.944962 -0.774217 -0.221444
v -0.944962 -0.774217 0.221444
v -0.944962 -0.137453 0.221444
v -0.944962 -0.153372 -0.210372
v -0.944962 -0.758297 -0.210372
v -0.944962 -0.758297 0.210372
v -0.944962 -0.153372 0.210372
v -0.894962 -0.231065 0.088966
v -0.894962 -0.680605 0.088966
v -0.894962 -0.680605 0.151034
v -0.894962 -0.231065 0.151034
v -0.894962 -0.153372 -0.210372
v -0.894962 -0.758297 -0.210372
v -0.894962 -0.758297 0.210372
v -0.894962 -0.153372 0.210372
v -0.977608 -0.231065 0.088966
v -0.977608 -0.680605 0.088966
v -0.977608 -0.680605 0.151034
v -0.977608 -0.231065 0.151034
v -0.894962 -0.153372 0.058363
v -0.894962 -0.758297 0.058363
v -0.894962 -0.719451 0.180703
v -0.894962 -0.192219 0.180703
v -0.990000 -0.809422 0.224133
v -0.990000 -0.756384 0.263686
v -0.990000 -0.805385 0.239269
v -0.990000 -0.793887 0.252101
v -0.990000 -0.776681 0.260675
v -0.892174 -0.756384 0.263686
v -0.892174 -0.809422 0.224133
v -0.889982 -0.781739 0.230470
v -0.892174 -0.776681 0.260675
v -0.892174 -0.793887 0.252101
v -0.892174 -0.805385 0.239269
v -0.990000 -0.756384 -0.263686
v -0.990000 -0.809422 -0.224133
v -0.990000 -0.776681 -0.260675
v -0.990000 -0.793887 -0.252101
v -0.990000 -0.805385 -0.239269
v -0.892174 -0.809422 -0.224133
v -0.892174 -0.756384 -0.263686
v -0.889982 -0.781739 -0.230470
v -0.892174 -0.805385 -0.239269
v -0.892174 -0.793887 -0.252101
v -0.892174 -0.776681 -0.260675
v -0.990000 -0.155286 0.263686
v -0.990000 -0.102248 0.224133
v -0.990000 -0.134989 0.260675
v -0.990000 -0.117782 0.252101
v -0.990000 -0.106285 0.239269
v -0.892174 -0.102248 0.224133
v -0.892174 -0.155286 0.263686
v -0.889982 -0.129931 0.230470
v -0.892174 -0.106285 0.239269
v -0.892174 -0.117782 0.252101
v -0.892174 -0.134989 0.260675
v -0.990000 -0.102248 -0.224133
v -0.990000 -0.155286 -0.263686
v -0.990000 -0.106285 -0.239269
v -0.990000 -0.117782 -0.252101
v -0.990000 -0.134989 -0.260675
v -0.892174 -0.155286 -0.263686
v -0.892174 -0.102248 -0.224133
v -0.889982 -0.129931 -0.230470
v -0.892174 -0.134989 -0.260675
v -0.892174 -0.117782 -0.252101
v -0.892174 -0.106285 -0.239269
vt 0.046403 0.503457
vt 0.046403 0.293586
vt 0.117391 0.293586
vt 0.117391 0.503457
vt 0.538955 0.666155
vt 0.539015 0.441361
vt 0.543362 0.438586
vt 0.559359 0.447182
vt 0.559359 0.660319
vt 0.543315 0.668926
vt 0.329125 0.666015
vt 0.540565 0.679116
vt 0.327575 0.679009
vt 0.324778 0.668789
vt 0.329185 0.441221
vt 0.324825 0.438449
vt 0.327575 0.428260
vt 0.540565 0.428366
vt 0.308781 0.660194
vt 0.308781 0.447057
vt 0.308781 0.679501
vt 0.518650 0.679501
vt 0.513403 0.685127
vt 0.314028 0.685127
vt 0.046403 0.728481
vt 0.117391 0.728481
vt 0.046403 0.068562
vt 0.117391 0.068562
vt 0.046403 0.938353
vt 0.117391 0.938353
vt 0.655918 0.702793
vt 0.655918 0.916566
vt 0.592053 0.916566
vt 0.592053 0.702793
vt 0.308781 0.904528
vt 0.314028 0.898902
vt 0.518650 0.904528
vt 0.513403 0.898902
vt 0.349634 0.208321
vt 0.349634 0.178909
vt 0.477365 0.178909
vt 0.477365 0.208321
vt 0.592053 0.289643
vt 0.592053 0.162297
vt 0.655918 0.289643
vt 0.655918 0.503415
vt 0.592053 0.503415
vt 0.592053 0.630761
vt 0.780172 0.061858
vt 0.780172 0.453043
vt 0.750654 0.481865
vt 0.750654 0.033036
vt 0.515234 0.146297
vt 0.515234 0.305159
vt 0.485822 0.305159
vt 0.485822 0.146297
vt 0.349634 0.367183
vt 0.477365 0.367183
vt 0.349634 0.020047
vt 0.477365 0.020047
vt 0.349634 0.396595
vt 0.477365 0.396595
vt 0.809690 0.090681
vt 0.809690 0.424221
vt 0.871443 0.424221
vt 0.901890 0.481866
vt 0.871443 0.090681
vt 0.901890 0.033036
vt 0.655918 0.090264
vt 0.592053 0.090264
vt 0.970037 0.960726
vt 0.702667 0.960726
vt 0.702667 0.511896
vt 0.970037 0.511896
vt 0.310191 0.439891
vt 0.315180 0.432318
vt 0.317736 0.433943
vt 0.322255 0.436815
vt 0.141586 0.955069
vt 0.260758 0.955069
vt 0.260758 0.961909
vt 0.141586 0.961909
vt 0.260758 0.972944
vt 0.141586 0.972944
vt 0.141586 0.019572
vt 0.260758 0.019572
vt 0.260758 0.030607
vt 0.141586 0.030607
vt 0.260758 0.037447
vt 0.141586 0.037447
vt 0.141586 0.716725
vt 0.141586 0.514134
vt 0.260758 0.514134
vt 0.260758 0.716725
vt 0.547729 0.429747
vt 0.552978 0.432448
vt 0.553182 0.432318
vt 0.551009 0.433705
vt 0.260758 0.752477
vt 0.141586 0.752477
vt 0.141586 0.745636
vt 0.260758 0.745636
vt 0.141586 0.734601
vt 0.260758 0.734601
vt 0.141586 0.723566
vt 0.260758 0.723566
vt 0.320411 0.677629
vt 0.315162 0.674928
vt 0.314958 0.675057
vt 0.317131 0.673671
vt 0.260758 0.275791
vt 0.141586 0.275791
vt 0.141586 0.268950
vt 0.260758 0.268950
vt 0.141586 0.257915
vt 0.260758 0.257915
vt 0.141586 0.246880
vt 0.260758 0.246880
vt 0.141586 0.240039
vt 0.260758 0.240039
vt 0.557949 0.667485
vt 0.552960 0.675058
vt 0.550404 0.673433
vt 0.545885 0.670560
vt 0.141586 0.478382
vt 0.260758 0.478382
vt 0.260758 0.485223
vt 0.141586 0.485223
vt 0.260758 0.496258
vt 0.141586 0.496258
vt 0.260758 0.507293
vt 0.141586 0.507293
vn 0.9215 -0.2703 0.2789
vn 0.9215 -0.2703 -0.2789
vn 0.5773 -0.5773 -0.5773
vn 0.5773 -0.5773 0.5773
vn 0.9215 0.2703 0.2789
vn 0.9980 -0.0463 -0.0421
vn 0.6670 -0.0533 -0.7431
vn 0.6670 0.0533 -0.7431
vn 0.9980 0.0463 -0.0421
vn 0.6510 0.7528 -0.0973
vn 0.6510 0.7528 0.0973
vn 0.9980 0.0463 0.0421
vn 0.9215 0.2703 -0.2789
vn 0.9980 -0.0463 0.0421
vn 0.6510 -0.7528 0.0973
vn 0.6510 -0.7528 -0.0973
vn 0.6670 0.0533 0.7431
vn 0.6670 -0.0533 0.7431
vn 0.9045 0.3015 0.3015
vn 0.9045 0.3015 -0.3015
vn 0.5773 0.5773 0.5773
vn 0.5773 0.5773 -0.5773
vn 0.9045 -0.3015 0.3015
vn 0.9045 -0.3015 -0.3015
vn 0.7071 -0.7071 0.0000
vn 0.7071 0.7071 0.0000
vn 1.0000 0.0000 0.0000
vn 0.6467 -0.2269 0.7282
vn 0.6372 -0.4665 0.6135
vn 0.6293 -0.6841 0.3688
vn -0.6790 -0.7279 0.0954
vn -0.6583 -0.6622 0.3580
vn -0.6672 -0.4515 0.5924
vn -0.6734 -0.2218 0.7052
vn -0.6909 -0.0532 0.7210
vn -0.6909 -0.0532 -0.7210
vn -0.6909 0.0532 -0.7210
vn 0.6293 -0.6841 -0.3688
vn 0.6372 -0.4665 -0.6135
vn 0.6467 -0.2269 -0.7282
vn -0.6790 -0.7279 -0.0954
vn -0.6583 -0.6622 -0.3580
vn -0.6672 -0.4515 -0.5924
vn -0.6734 -0.2218 -0.7052
vn 0.6293 0.6841 0.3688
vn 0.6372 0.4665 0.6135
vn 0.6467 0.2269 0.7282
vn -0.6790 0.7279 0.0954
vn -0.6583 0.6622 0.3580
vn -0.6672 0.4515 0.5924
vn -0.6734 0.2218 0.7052
vn -0.6909 0.0532 0.7210
vn 0.6467 0.2269 -0.7282
vn 0.6372 0.4665 -0.6135
vn 0.6293 0.6841 -0.3688
vn -0.6790 0.7279 -0.0954
vn -0.6583 0.6622 -0.3580
vn -0.6672 0.4515 -0.5924
vn -0.6734 0.2218 -0.7052
usemtl None
s 1
f 4/1/1 2/2/2 8/3/3 5/4/4
f 4/5/1 3/6/5 47/7/6 46/8/7 67/9/8 69/10/9
f 2/11/2 4/5/1 69/10/9 68/12/10 56/13/11 58/14/12
f 3/6/5 1/15/13 36/16/14 35/17/15 45/18/16 47/7/6
f 1/15/13 2/11/2 58/14/12 57/19/17 34/20/18 36/16/14
f 5/21/4 8/22/3 12/23/19 9/24/20
f 3/25/5 4/1/1 5/4/4 6/26/21
f 2/2/2 1/27/13 7/28/22 8/3/3
f 1/29/13 3/25/5 6/26/21 7/30/22
f 12/31/19 11/32/23 19/33/4 20/34/21
f 6/35/21 5/21/4 9/24/20 10/36/24
f 8/22/3 7/37/22 11/38/23 12/23/19
f 7/37/22 6/35/21 10/36/24 11/38/23
f 13/39/23 16/40/24 24/41/3 21/42/4
f 18/43/3 26/44/25 10/45/24
f 10/45/24 9/46/20 17/47/22 18/43/3
f 25/48/26 17/47/22 9/46/20
f 27/49/27 28/50/27 20/51/21 19/52/4
f 22/53/21 21/54/4 24/55/3 23/56/22
f 14/57/19 13/39/23 21/42/4 22/58/21
f 16/40/24 15/59/20 23/60/22 24/41/3
f 15/61/20 14/57/19 22/58/21 23/62/22
f 15/63/20 16/64/24 28/50/27 27/49/27
f 16/64/24 13/65/23 25/66/26 28/50/27
f 14/67/19 15/63/20 27/49/27 26/68/25
f 13/65/23 14/67/19 26/68/25 25/66/26
f 19/52/4 26/68/25 27/49/27
f 12/31/19 20/34/21 25/48/26
f 28/50/27 25/66/26 20/51/21
f 10/45/24 26/44/25 11/69/23
f 19/70/4 11/69/23 26/44/25
f 12/31/19 25/48/26 9/46/20
f 17/71/22 25/72/26 26/73/25 18/74/3
f 34/20/18 37/75/28 36/16/14
f 37/75/28 38/76/29 36/16/14
f 38/76/29 39/77/30 36/16/14
f 39/77/30 35/78/15 36/16/14
f 29/79/31 35/80/15 39/81/30 31/82/32
f 31/82/32 39/81/30 38/83/29 32/84/33
f 32/85/33 38/86/29 37/87/28 33/88/34
f 33/88/34 37/87/28 34/89/18 30/90/35
f 40/91/36 63/92/37 67/93/8 46/94/7
f 45/18/16 48/95/38 47/7/6
f 48/95/38 49/96/39 47/7/6
f 49/96/39 50/97/40 47/7/6
f 50/97/40 46/98/7 47/7/6
f 45/99/16 41/100/41 44/101/42 48/102/38
f 48/102/38 44/101/42 43/103/43 49/104/39
f 49/104/39 43/103/43 42/105/44 50/106/40
f 50/106/40 42/105/44 40/91/36 46/94/7
f 41/100/41 45/99/16 35/80/15 29/79/31
f 56/13/11 59/107/45 58/14/12
f 59/107/45 60/108/46 58/14/12
f 60/108/46 61/109/47 58/14/12
f 61/109/47 57/110/17 58/14/12
f 56/111/11 52/112/48 55/113/49 59/114/45
f 59/114/45 55/113/49 54/115/50 60/116/46
f 60/116/46 54/115/50 53/117/51 61/118/47
f 61/118/47 53/117/51 51/119/52 57/120/17
f 34/89/18 57/120/17 51/119/52 30/90/35
f 67/9/8 70/121/53 69/10/9
f 70/121/53 71/122/54 69/10/9
f 71/122/54 72/123/55 69/10/9
f 72/123/55 68/124/10 69/10/9
f 62/125/56 68/126/10 72/127/55 64/128/57
f 64/128/57 72/127/55 71/129/54 65/130/58
f 65/130/58 71/129/54 70/131/53 66/132/59
f 66/132/59 70/131/53 67/93/8 63/92/37
f 68/126/10 62/125/56 52/112/48 56/111/11
f 62/125/56 63/92/37 41/100/41
f 29/79/31 31/82/32 32/84/33
f 32/84/33 33/88/34 29/79/31
f 33/88/34 30/90/35 29/79/31
f 30/90/35 51/119/52 52/112/48
f 51/119/52 53/117/51 55/113/49
f 53/117/51 54/115/50 55/113/49
f 55/113/49 52/112/48 51/119/52
f 52/112/48 62/125/56 29/79/31
f 62/125/56 64/128/57 65/130/58
f 65/130/58 66/132/59 63/92/37
f 63/92/37 40/91/36 41/100/41
f 40/91/36 42/105/44 41/100/41
f 42/105/44 43/103/43 44/101/42
f 44/101/42 41/100/41 42/105/44
f 41/100/41 29/79/31 62/125/56
f 52/112/48 29/79/31 30/90/35
f 62/125/56 65/130/58 63/92/37
