# Blender v2.90.1 OBJ File: 'field.blend'
# www.blender.org
mtllib edge.mtl
o Cube
v 24.038252 2.174709 10.228564
v 25.438316 -3.431971 12.286163
v 24.038252 2.174709 -10.228564
v 25.438316 -3.431971 -12.286163
v -24.038252 2.174709 10.228564
v -25.438316 -3.431971 12.286163
v -24.038252 2.174709 -10.228564
v -25.438316 -3.431971 -12.286163
v 25.438316 2.174709 -12.286163
v -25.438316 2.174709 -12.286163
v 25.438316 2.174709 12.286163
v -25.438316 2.174709 12.286163
v 24.038252 -3.548434 -10.228564
v -24.038252 -3.548434 -10.228564
v 24.038252 -3.548434 10.228564
v -24.038252 -3.548434 10.228564
vt 0.000000 0.000000
vt 0.000000 1.000000
vt 1.000000 1.000000
vt 1.000000 0.000000
vt 0.000000 0.000000
vt 0.000000 1.000000
vt 1.000000 1.000000
vt 1.000000 0.000000
vt 0.000000 0.000000
vt 0.000000 1.000000
vt 1.000000 1.000000
vt 1.000000 0.000000
vt 0.000000 0.000000
vt 0.000000 1.000000
vt 1.000000 1.000000
vt 1.000000 0.000000
vt 0.000000 0.000000
vt 0.000000 1.000000
vt 1.000000 1.000000
vt 1.000000 0.000000
vt 0.000000 1.000000
vt 1.000000 0.000000
vt 0.000000 0.000000
vt 0.000000 1.000000
vt 1.000000 0.000000
vt 0.000000 0.000000
vt 0.000000 1.000000
vt 1.000000 0.000000
vt 0.000000 0.000000
vt 0.000000 1.000000
vt 0.000000 1.000000
vt 1.000000 1.000000
vt 0.000000 1.000000
vt 1.000000 1.000000
vt 0.000000 1.000000
vt 1.000000 1.000000
vn -1.0000 0.0000 0.0000
vn 0.0000 0.0000 -1.0000
vn 1.0000 0.0000 0.0000
vn 0.0000 0.0000 1.0000
vn 0.0000 1.0000 -0.0000
usemtl Material.001
s off
f 3/1/1 13/2/1 15/3/1 1/4/1
f 4/5/2 8/6/2 10/7/2 9/8/2
f 8/9/1 6/10/1 12/11/1 10/12/1
f 2/13/3 4/14/3 9/15/3 11/16/3
f 6/17/4 2/18/4 11/19/4 12/20/4
f 3/1/5 9/21/5 10/7/5 7/22/5
f 1/23/5 11/24/5 9/15/5 3/25/5
f 7/26/5 10/27/5 12/11/5 5/28/5
f 5/29/5 12/30/5 11/19/5 1/4/5
f 5/29/3 16/31/3 14/32/3 7/22/3
f 7/26/4 14/33/4 13/34/4 3/25/4
f 1/23/2 15/35/2 16/36/2 5/28/2
