# Blender v2.83.5 OBJ File: 'tubes.blend'
# www.blender.org
mtllib tubestr.mtl
o Straight_Cylinder.002
v 1.000000 0.000000 -1.000000
v 1.000000 -0.195090 -0.980785
v 1.000000 -0.382683 -0.923880
v 1.000000 -0.555570 -0.831470
v 1.000000 -0.707107 -0.707107
v 1.000000 -0.831470 -0.555570
v 1.000000 -0.923879 -0.382683
v 1.000000 -0.980785 -0.195090
v 1.000000 -1.000000 -0.000000
v 1.000000 -0.980785 0.195090
v 1.000000 -0.923880 0.382683
v 1.000000 -0.831470 0.555570
v 1.000000 -0.707107 0.707107
v 1.000000 -0.555570 0.831470
v 1.000000 -0.382683 0.923880
v 1.000000 -0.195090 0.980785
v 1.000000 0.000000 1.000000
v 1.000000 0.195091 0.980785
v 1.000000 0.382684 0.923879
v 1.000000 0.555571 0.831469
v 1.000000 0.707107 0.707106
v 1.000000 0.831470 0.555570
v 1.000000 0.923880 0.382683
v 1.000000 0.980785 0.195089
v 1.000000 1.000000 -0.000001
v 1.000000 0.980785 -0.195091
v 1.000000 0.923879 -0.382684
v 1.000000 0.831469 -0.555571
v 1.000000 0.707106 -0.707108
v 1.000000 0.555569 -0.831470
v 1.000000 0.382682 -0.923880
v 1.000000 0.195089 -0.980786
v 1.000000 -0.175581 -0.882707
v 1.000000 0.000000 -0.900000
v 1.000000 -0.344415 -0.831492
v 1.000000 -0.500013 -0.748323
v 1.000000 -0.636396 -0.636396
v 1.000000 -0.748323 -0.500013
v 1.000000 -0.831491 -0.344415
v 1.000000 -0.882707 -0.175581
v 1.000000 -0.900000 -0.000000
v 1.000000 -0.882707 0.175581
v 1.000000 -0.831492 0.344415
v 1.000000 -0.748323 0.500013
v 1.000000 -0.636396 0.636396
v 1.000000 -0.500013 0.748323
v 1.000000 -0.344415 0.831492
v 1.000000 -0.175581 0.882707
v 1.000000 0.000000 0.900000
v 1.000000 0.175582 0.882707
v 1.000000 0.344416 0.831491
v 1.000000 0.500014 0.748322
v 1.000000 0.636397 0.636396
v 1.000000 0.748323 0.500013
v 1.000000 0.831492 0.344414
v 1.000000 0.882707 0.175580
v 1.000000 0.900000 -0.000001
v 1.000000 0.882707 -0.175582
v 1.000000 0.831491 -0.344416
v 1.000000 0.748322 -0.500014
v 1.000000 0.636395 -0.636397
v 1.000000 0.500012 -0.748323
v 1.000000 0.344414 -0.831492
v 1.000000 0.175580 -0.882707
v -0.000000 0.175580 -0.882707
v -1.000000 -0.000000 -1.000000
v -0.000000 0.344414 -0.831492
v -1.000000 -0.195090 -0.980785
v -0.000000 0.500012 -0.748323
v -1.000000 -0.382684 -0.923880
v -0.000000 0.636395 -0.636397
v -1.000000 -0.555570 -0.831470
v -0.000000 0.748322 -0.500014
v -1.000000 -0.707107 -0.707107
v -0.000000 0.831491 -0.344416
v -1.000000 -0.831470 -0.555570
v -0.000000 0.882707 -0.175582
v -1.000000 -0.923880 -0.382683
v -0.000000 0.900000 -0.000001
v -1.000000 -0.980785 -0.195090
v -0.000000 0.882707 0.175580
v -1.000000 -1.000000 -0.000000
v -0.000000 0.831492 0.344414
v -1.000000 -0.980785 0.195090
v -0.000000 0.748323 0.500013
v -1.000000 -0.923880 0.382683
v -0.000000 0.636397 0.636396
v -1.000000 -0.831470 0.555570
v -0.000000 0.500014 0.748322
v -1.000000 -0.707107 0.707107
v -0.000000 0.344416 0.831491
v -1.000000 -0.555570 0.831470
v -0.000000 0.175582 0.882707
v -1.000000 -0.382683 0.923880
v -0.000000 0.000000 0.900000
v -1.000000 -0.195090 0.980785
v 0.000000 -0.175581 0.882707
v -1.000000 0.000000 1.000000
v 0.000000 -0.344415 0.831492
v -1.000000 0.195091 0.980785
v 0.000000 -0.500013 0.748323
v -1.000000 0.382684 0.923879
v 0.000000 -0.636396 0.636396
v -1.000000 0.555571 0.831469
v 0.000000 -0.748323 0.500013
v -1.000000 0.707107 0.707106
v 0.000000 -0.831492 0.344415
v -1.000000 0.831470 0.555570
v 0.000000 -0.882707 0.175581
v -1.000000 0.923880 0.382683
v 0.000000 -0.900000 -0.000000
v -1.000000 0.980785 0.195089
v 0.000000 -0.882707 -0.175581
v -1.000000 1.000000 -0.000001
v 0.000000 -0.831491 -0.344415
v -1.000000 0.980785 -0.195091
v 0.000000 -0.748323 -0.500013
v -1.000000 0.923879 -0.382684
v 0.000000 -0.636396 -0.636396
v -1.000000 0.831469 -0.555571
v 0.000000 -0.500013 -0.748323
v -1.000000 0.707106 -0.707108
v 0.000000 -0.344415 -0.831492
v -1.000000 0.555569 -0.831470
v -0.000000 0.000000 -0.900000
v -1.000000 0.382682 -0.923880
v 0.000000 -0.175581 -0.882707
v -1.000000 0.195089 -0.980786
v -1.000000 -0.175581 -0.882707
v -1.000000 -0.000000 -0.900000
v -1.000000 -0.344415 -0.831492
v -1.000000 -0.500013 -0.748323
v -1.000000 -0.636396 -0.636396
v -1.000000 -0.748323 -0.500013
v -1.000000 -0.831492 -0.344415
v -1.000000 -0.882707 -0.175581
v -1.000000 -0.900000 -0.000000
v -1.000000 -0.882707 0.175581
v -1.000000 -0.831492 0.344415
v -1.000000 -0.748323 0.500013
v -1.000000 -0.636396 0.636396
v -1.000000 -0.500013 0.748323
v -1.000000 -0.344415 0.831492
v -1.000000 -0.175581 0.882707
v -1.000000 0.000000 0.900000
v -1.000000 0.175582 0.882707
v -1.000000 0.344415 0.831491
v -1.000000 0.500014 0.748322
v -1.000000 0.636396 0.636396
v -1.000000 0.748323 0.500013
v -1.000000 0.831492 0.344414
v -1.000000 0.882707 0.175580
v -1.000000 0.900000 -0.000001
v -1.000000 0.882706 -0.175582
v -1.000000 0.831491 -0.344416
v -1.000000 0.748322 -0.500014
v -1.000000 0.636395 -0.636397
v -1.000000 0.500012 -0.748323
v -1.000000 0.344414 -0.831492
v -1.000000 0.175580 -0.882707
v 0.000000 0.000000 -1.000000
v 0.000000 -0.195090 -0.980785
v 0.000000 -0.382683 -0.923880
v 0.000000 -0.555570 -0.831470
v 0.000000 -0.707107 -0.707107
v 0.000000 -0.831470 -0.555570
v 0.000000 -0.923880 -0.382683
v 0.000000 -0.980785 -0.195090
v 0.000000 -1.000000 -0.000000
v 0.000000 -0.980785 0.195090
v 0.000000 -0.923880 0.382683
v 0.000000 -0.831470 0.555570
v 0.000000 -0.707107 0.707107
v 0.000000 -0.555570 0.831470
v 0.000000 -0.382683 0.923880
v 0.000000 -0.195090 0.980785
v -0.000000 0.000000 1.000000
v -0.000000 0.195091 0.980785
v -0.000000 0.382684 0.923879
v -0.000000 0.555571 0.831469
v -0.000000 0.707107 0.707106
v -0.000000 0.831470 0.555570
v -0.000000 0.923880 0.382683
v -0.000000 0.980785 0.195089
v -0.000000 1.000000 -0.000001
v -0.000000 0.980785 -0.195091
v -0.000000 0.923879 -0.382684
v -0.000000 0.831469 -0.555571
v -0.000000 0.707106 -0.707108
v -0.000000 0.555569 -0.831470
v -0.000000 0.382682 -0.923880
v -0.000000 0.195089 -0.980786
vt 0.546703 0.366283
vt 0.461439 0.366283
vt 0.461439 0.349568
vt 0.546703 0.349568
vt 0.461439 0.332853
vt 0.546703 0.332854
vt 0.461439 0.316139
vt 0.546703 0.316139
vt 0.461439 0.299424
vt 0.546703 0.299424
vt 0.461439 0.282710
vt 0.546703 0.282710
vt 0.461439 0.265995
vt 0.546703 0.265995
vt 0.461439 0.249280
vt 0.546703 0.249280
vt 0.461439 0.232566
vt 0.546703 0.232566
vt 0.546703 0.767434
vt 0.461439 0.767434
vt 0.461439 0.750720
vt 0.546703 0.750720
vt 0.461439 0.734005
vt 0.546703 0.734005
vt 0.461439 0.717290
vt 0.546703 0.717290
vt 0.461439 0.700576
vt 0.546703 0.700576
vt 0.461439 0.683861
vt 0.546703 0.683861
vt 0.461439 0.667146
vt 0.546703 0.667146
vt 0.461439 0.650432
vt 0.546703 0.650432
vt 0.461439 0.633717
vt 0.546703 0.633717
vt 0.461439 0.617002
vt 0.546703 0.617002
vt 0.461439 0.600288
vt 0.546703 0.600288
vt 0.461439 0.583573
vt 0.546703 0.583573
vt 0.461439 0.566859
vt 0.546703 0.566859
vt 0.461439 0.550144
vt 0.546703 0.550144
vt 0.461439 0.533429
vt 0.546703 0.533429
vt 0.461439 0.516715
vt 0.546703 0.516715
vt 0.461439 0.500000
vt 0.546703 0.500000
vt 0.461439 0.483285
vt 0.546703 0.483285
vt 0.461439 0.466571
vt 0.546703 0.466571
vt 0.461439 0.449856
vt 0.546703 0.449856
vt 0.461439 0.433141
vt 0.546703 0.433141
vt 0.461439 0.416427
vt 0.546703 0.416427
vt 0.461439 0.399712
vt 0.546703 0.399712
vt 0.894705 0.730431
vt 0.873139 0.739364
vt 0.869682 0.727969
vt 0.889092 0.719930
vt 0.461439 0.382997
vt 0.546703 0.382997
vt 0.069232 0.765556
vt 0.069232 0.737440
vt 0.228588 0.737440
vt 0.228588 0.765555
vt 0.930620 0.549876
vt 0.943589 0.569285
vt 0.933087 0.574898
vt 0.921415 0.557430
vt 0.746528 0.549876
vt 0.763034 0.533371
vt 0.770588 0.542575
vt 0.755732 0.557430
vt 0.804008 0.739364
vt 0.782442 0.730431
vt 0.788056 0.719930
vt 0.807465 0.727969
vt 0.957075 0.637088
vt 0.952521 0.659982
vt 0.941127 0.656526
vt 0.945225 0.635921
vt 0.826903 0.506915
vt 0.850245 0.506915
vt 0.849078 0.518765
vt 0.828070 0.518765
vt 0.724627 0.659983
vt 0.720073 0.637088
vt 0.731923 0.635921
vt 0.736021 0.656526
vt 0.914114 0.717463
vt 0.906560 0.708258
vt 0.914114 0.533370
vt 0.906560 0.542575
vt 0.733559 0.569285
vt 0.744061 0.574898
vt 0.826902 0.743918
vt 0.828069 0.732068
vt 0.957075 0.613745
vt 0.945225 0.614912
vt 0.804008 0.511469
vt 0.807465 0.522864
vt 0.733560 0.681548
vt 0.744061 0.675935
vt 0.930620 0.700957
vt 0.921415 0.693403
vt 0.894705 0.520402
vt 0.889092 0.530903
vt 0.724626 0.590851
vt 0.736021 0.594308
vt 0.850245 0.743918
vt 0.849078 0.732068
vt 0.952521 0.590851
vt 0.941127 0.594307
vt 0.782442 0.520402
vt 0.788056 0.530903
vt 0.746528 0.700957
vt 0.755733 0.693403
vt 0.943588 0.681548
vt 0.933087 0.675935
vt 0.873140 0.511469
vt 0.869683 0.522864
vt 0.720073 0.613746
vt 0.731923 0.614913
vt 0.763034 0.717463
vt 0.770588 0.708258
vt 0.069232 0.259480
vt 0.069232 0.231365
vt 0.228588 0.231365
vt 0.228588 0.259481
vt 0.069232 0.793671
vt 0.228588 0.793671
vt 0.069232 0.653095
vt 0.069232 0.624979
vt 0.228588 0.624979
vt 0.228588 0.653095
vt 0.069232 0.287596
vt 0.228588 0.287596
vt 0.069232 0.821786
vt 0.228588 0.821786
vt 0.069232 0.681210
vt 0.228588 0.681210
vt 0.069232 0.315711
vt 0.228588 0.315711
vt 0.069232 0.849902
vt 0.228588 0.849901
vt 0.069232 0.709325
vt 0.228588 0.709325
vt 0.069232 0.343826
vt 0.228588 0.343827
vt 0.069232 0.878017
vt 0.228588 0.878016
vt 0.069232 0.371942
vt 0.228588 0.371942
vt 0.069232 0.906132
vt 0.228588 0.906132
vt 0.069232 0.400057
vt 0.228588 0.400057
vt 0.069232 0.934247
vt 0.228588 0.934247
vt 0.069232 0.428172
vt 0.228588 0.428172
vt 0.069233 0.962363
vt 0.228588 0.962362
vt 0.069232 0.456288
vt 0.228587 0.456288
vt 0.069232 0.090789
vt 0.069233 0.062673
vt 0.228588 0.062674
vt 0.228588 0.090789
vt 0.069232 0.484403
vt 0.228587 0.484403
vt 0.069232 0.118904
vt 0.228588 0.118904
vt 0.069232 0.512518
vt 0.228587 0.512518
vt 0.069232 0.147019
vt 0.228588 0.147020
vt 0.069232 0.540634
vt 0.228587 0.540633
vt 0.069232 0.175135
vt 0.228588 0.175135
vt 0.069232 0.568749
vt 0.228588 0.568749
vt 0.069232 0.203250
vt 0.228588 0.203250
vt 0.069232 0.596864
vt 0.228588 0.596864
vt 0.631967 0.349568
vt 0.631967 0.366283
vt 0.631967 0.332854
vt 0.631967 0.316139
vt 0.631967 0.299424
vt 0.631967 0.282710
vt 0.631967 0.265995
vt 0.631967 0.249280
vt 0.631967 0.232566
vt 0.631967 0.750720
vt 0.631967 0.767434
vt 0.631967 0.734005
vt 0.631967 0.717290
vt 0.631967 0.700576
vt 0.631967 0.683861
vt 0.631967 0.667146
vt 0.631967 0.650432
vt 0.631967 0.633717
vt 0.631967 0.617002
vt 0.631967 0.600288
vt 0.631967 0.583573
vt 0.631967 0.566859
vt 0.631967 0.550144
vt 0.631967 0.533429
vt 0.631967 0.516715
vt 0.631967 0.500000
vt 0.631967 0.483285
vt 0.631967 0.466571
vt 0.631967 0.449856
vt 0.631967 0.433141
vt 0.631967 0.416427
vt 0.631967 0.399712
vt 0.894705 0.493169
vt 0.889092 0.482667
vt 0.906560 0.470996
vt 0.914114 0.480200
vt 0.631967 0.382997
vt 0.387943 0.765555
vt 0.387943 0.737440
vt 0.724627 0.422720
vt 0.736021 0.419264
vt 0.744061 0.438673
vt 0.733559 0.444286
vt 0.826903 0.269653
vt 0.828070 0.281503
vt 0.807465 0.285601
vt 0.804009 0.274207
vt 0.952521 0.422720
vt 0.941127 0.419263
vt 0.945225 0.398659
vt 0.957075 0.399826
vt 0.782443 0.493169
vt 0.788056 0.482668
vt 0.807465 0.490707
vt 0.804008 0.502102
vt 0.746528 0.312614
vt 0.755733 0.320168
vt 0.744061 0.337636
vt 0.733559 0.332023
vt 0.930620 0.312614
vt 0.921415 0.320168
vt 0.906560 0.305313
vt 0.914114 0.296108
vt 0.873140 0.502102
vt 0.869683 0.490707
vt 0.720073 0.399826
vt 0.731923 0.398659
vt 0.850246 0.269653
vt 0.849079 0.281503
vt 0.943588 0.444286
vt 0.933087 0.438673
vt 0.763034 0.480201
vt 0.770588 0.470996
vt 0.763034 0.296108
vt 0.770588 0.305313
vt 0.943588 0.332023
vt 0.933087 0.337636
vt 0.850245 0.506656
vt 0.849078 0.494806
vt 0.720073 0.376483
vt 0.731923 0.377650
vt 0.873140 0.274207
vt 0.869683 0.285602
vt 0.930620 0.463695
vt 0.921415 0.456141
vt 0.746528 0.463695
vt 0.755733 0.456141
vt 0.782443 0.283140
vt 0.788056 0.293641
vt 0.952521 0.353589
vt 0.941127 0.357045
vt 0.826903 0.506656
vt 0.828070 0.494806
vt 0.724627 0.353589
vt 0.736021 0.357046
vt 0.894706 0.283140
vt 0.889092 0.293641
vt 0.945225 0.377650
vt 0.957075 0.376483
vt 0.387943 0.259481
vt 0.387943 0.231366
vt 0.387943 0.793670
vt 0.387943 0.653094
vt 0.387943 0.624979
vt 0.387943 0.287596
vt 0.387943 0.821785
vt 0.387943 0.681210
vt 0.387943 0.315712
vt 0.387944 0.849901
vt 0.387943 0.709325
vt 0.387943 0.343827
vt 0.387944 0.878016
vt 0.387943 0.371942
vt 0.387944 0.906131
vt 0.387943 0.400057
vt 0.387944 0.934246
vt 0.387943 0.428172
vt 0.387944 0.962362
vt 0.387943 0.456288
vt 0.387944 0.090790
vt 0.387944 0.062675
vt 0.387943 0.484403
vt 0.387944 0.118905
vt 0.387943 0.512518
vt 0.387944 0.147020
vt 0.387943 0.540633
vt 0.387943 0.175135
vt 0.387943 0.568749
vt 0.387943 0.203251
vt 0.387943 0.596864
vn 0.0000 -0.0980 -0.9952
vn 0.0000 -0.2903 -0.9569
vn 0.0000 -0.4714 -0.8819
vn 0.0000 -0.6344 -0.7730
vn 0.0000 -0.7730 -0.6344
vn 0.0000 -0.8819 -0.4714
vn 0.0000 -0.9569 -0.2903
vn 0.0000 -0.9952 -0.0980
vn 0.0000 -0.9952 0.0980
vn 0.0000 -0.9569 0.2903
vn 0.0000 -0.8819 0.4714
vn 0.0000 -0.7730 0.6344
vn 0.0000 -0.6344 0.7730
vn 0.0000 -0.4714 0.8819
vn -0.0000 -0.2903 0.9569
vn 0.0000 -0.0980 0.9952
vn -0.0000 0.0980 0.9952
vn -0.0000 0.2903 0.9569
vn -0.0000 0.4714 0.8819
vn -0.0000 0.6344 0.7730
vn -0.0000 0.7730 0.6344
vn -0.0000 0.8819 0.4714
vn -0.0000 0.9569 0.2903
vn -0.0000 0.9952 0.0980
vn -0.0000 0.9952 -0.0980
vn -0.0000 0.9569 -0.2903
vn -0.0000 0.8819 -0.4714
vn -0.0000 0.7730 -0.6344
vn -0.0000 0.6344 -0.7730
vn -0.0000 0.4714 -0.8819
vn 1.0000 0.0000 0.0000
vn 0.0000 0.2903 -0.9569
vn -0.0000 0.0980 -0.9952
vn -1.0000 0.0000 0.0000
usemtl None
s off
f 161/1/1 1/2/1 2/3/1 162/4/1
f 162/4/2 2/3/2 3/5/2 163/6/2
f 163/6/3 3/5/3 4/7/3 164/8/3
f 164/8/4 4/7/4 5/9/4 165/10/4
f 165/10/5 5/9/5 6/11/5 166/12/5
f 166/12/6 6/11/6 7/13/6 167/14/6
f 167/14/7 7/13/7 8/15/7 168/16/7
f 168/16/8 8/15/8 9/17/8 169/18/8
f 169/19/9 9/20/9 10/21/9 170/22/9
f 170/22/10 10/21/10 11/23/10 171/24/10
f 171/24/11 11/23/11 12/25/11 172/26/11
f 172/26/12 12/25/12 13/27/12 173/28/12
f 173/28/13 13/27/13 14/29/13 174/30/13
f 174/30/14 14/29/14 15/31/14 175/32/14
f 175/32/15 15/31/15 16/33/15 176/34/15
f 176/34/16 16/33/16 17/35/16 177/36/16
f 177/36/17 17/35/17 18/37/17 178/38/17
f 178/38/18 18/37/18 19/39/18 179/40/18
f 179/40/19 19/39/19 20/41/19 180/42/19
f 180/42/20 20/41/20 21/43/20 181/44/20
f 181/44/21 21/43/21 22/45/21 182/46/21
f 182/46/22 22/45/22 23/47/22 183/48/22
f 183/48/23 23/47/23 24/49/23 184/50/23
f 184/50/24 24/49/24 25/51/24 185/52/24
f 185/52/25 25/51/25 26/53/25 186/54/25
f 186/54/26 26/53/26 27/55/26 187/56/26
f 187/56/27 27/55/27 28/57/27 188/58/27
f 188/58/28 28/57/28 29/59/28 189/60/28
f 189/60/29 29/59/29 30/61/29 190/62/29
f 190/62/30 30/61/30 31/63/30 191/64/30
f 7/65/31 6/66/31 38/67/31 39/68/31
f 191/64/32 31/63/32 32/69/32 192/70/32
f 192/70/33 32/69/33 1/2/33 161/1/33
f 33/71/17 34/72/17 125/73/17 127/74/17
f 16/75/31 15/76/31 47/77/31 48/78/31
f 25/79/31 24/80/31 56/81/31 57/82/31
f 3/83/31 2/84/31 33/85/31 35/86/31
f 12/87/31 11/88/31 43/89/31 44/90/31
f 21/91/31 20/92/31 52/93/31 53/94/31
f 30/95/31 29/96/31 61/97/31 62/98/31
f 8/99/31 7/65/31 39/68/31 40/100/31
f 17/101/31 16/75/31 48/78/31 49/102/31
f 26/103/31 25/79/31 57/82/31 58/104/31
f 4/105/31 3/83/31 35/86/31 36/106/31
f 13/107/31 12/87/31 44/90/31 45/108/31
f 22/109/31 21/91/31 53/94/31 54/110/31
f 31/111/31 30/95/31 62/98/31 63/112/31
f 9/113/31 8/99/31 40/100/31 41/114/31
f 18/115/31 17/101/31 49/102/31 50/116/31
f 27/117/31 26/103/31 58/104/31 59/118/31
f 5/119/31 4/105/31 36/106/31 37/120/31
f 14/121/31 13/107/31 45/108/31 46/122/31
f 23/123/31 22/109/31 54/110/31 55/124/31
f 32/125/31 31/111/31 63/112/31 64/126/31
f 10/127/31 9/113/31 41/114/31 42/128/31
f 19/129/31 18/115/31 50/116/31 51/130/31
f 28/131/31 27/117/31 59/118/31 60/132/31
f 6/66/31 5/119/31 37/120/31 38/67/31
f 15/76/31 14/121/31 46/122/31 47/77/31
f 24/80/31 23/123/31 55/124/31 56/81/31
f 2/84/31 1/133/31 34/134/31 33/85/31
f 1/133/31 32/125/31 64/126/31 34/134/31
f 11/88/31 10/127/31 42/128/31 43/89/31
f 20/92/31 19/129/31 51/130/31 52/93/31
f 29/96/31 28/131/31 60/132/31 61/97/31
f 48/135/32 47/136/32 99/137/32 97/138/32
f 35/139/18 33/71/18 127/74/18 123/140/18
f 62/141/13 61/142/13 71/143/13 69/144/13
f 49/145/33 48/135/33 97/138/33 95/146/33
f 36/147/19 35/139/19 123/140/19 121/148/19
f 63/149/14 62/141/14 69/144/14 67/150/14
f 50/151/1 49/145/1 95/146/1 93/152/1
f 37/153/20 36/147/20 121/148/20 119/154/20
f 64/155/15 63/149/15 67/150/15 65/156/15
f 51/157/2 50/151/2 93/152/2 91/158/2
f 38/159/21 37/153/21 119/154/21 117/160/21
f 34/72/16 64/155/16 65/156/16 125/73/16
f 52/161/3 51/157/3 91/158/3 89/162/3
f 39/163/22 38/159/22 117/160/22 115/164/22
f 53/165/4 52/161/4 89/162/4 87/166/4
f 40/167/23 39/163/23 115/164/23 113/168/23
f 54/169/5 53/165/5 87/166/5 85/170/5
f 41/171/24 40/167/24 113/168/24 111/172/24
f 55/173/6 54/169/6 85/170/6 83/174/6
f 42/175/25 41/176/25 111/177/25 109/178/25
f 56/179/7 55/173/7 83/174/7 81/180/7
f 43/181/26 42/175/26 109/178/26 107/182/26
f 57/183/8 56/179/8 81/180/8 79/184/8
f 44/185/27 43/181/27 107/182/27 105/186/27
f 58/187/9 57/183/9 79/184/9 77/188/9
f 45/189/28 44/185/28 105/186/28 103/190/28
f 59/191/10 58/187/10 77/188/10 75/192/10
f 46/193/29 45/189/29 103/190/29 101/194/29
f 60/195/11 59/191/11 75/192/11 73/196/11
f 47/136/30 46/193/30 101/194/30 99/137/30
f 61/142/12 60/195/12 73/196/12 71/143/12
f 161/1/1 162/4/1 68/197/1 66/198/1
f 162/4/2 163/6/2 70/199/2 68/197/2
f 163/6/3 164/8/3 72/200/3 70/199/3
f 164/8/4 165/10/4 74/201/4 72/200/4
f 165/10/5 166/12/5 76/202/5 74/201/5
f 166/12/6 167/14/6 78/203/6 76/202/6
f 167/14/7 168/16/7 80/204/7 78/203/7
f 168/16/8 169/18/8 82/205/8 80/204/8
f 169/19/9 170/22/9 84/206/9 82/207/9
f 170/22/10 171/24/10 86/208/10 84/206/10
f 171/24/11 172/26/11 88/209/11 86/208/11
f 172/26/12 173/28/12 90/210/12 88/209/12
f 173/28/13 174/30/13 92/211/13 90/210/13
f 174/30/14 175/32/14 94/212/14 92/211/14
f 175/32/15 176/34/15 96/213/15 94/212/15
f 176/34/16 177/36/16 98/214/16 96/213/16
f 177/36/17 178/38/17 100/215/17 98/214/17
f 178/38/18 179/40/18 102/216/18 100/215/18
f 179/40/19 180/42/19 104/217/19 102/216/19
f 180/42/20 181/44/20 106/218/20 104/217/20
f 181/44/21 182/46/21 108/219/21 106/218/21
f 182/46/22 183/48/22 110/220/22 108/219/22
f 183/48/23 184/50/23 112/221/23 110/220/23
f 184/50/24 185/52/24 114/222/24 112/221/24
f 185/52/25 186/54/25 116/223/25 114/222/25
f 186/54/26 187/56/26 118/224/26 116/223/26
f 187/56/27 188/58/27 120/225/27 118/224/27
f 188/58/28 189/60/28 122/226/28 120/225/28
f 189/60/29 190/62/29 124/227/29 122/226/29
f 190/62/30 191/64/30 126/228/30 124/227/30
f 78/229/34 135/230/34 134/231/34 76/232/34
f 191/64/32 192/70/32 128/233/32 126/228/32
f 192/70/33 161/1/33 66/198/33 128/233/33
f 129/234/17 127/74/17 125/73/17 130/235/17
f 96/236/34 144/237/34 143/238/34 94/239/34
f 114/240/34 153/241/34 152/242/34 112/243/34
f 70/244/34 131/245/34 129/246/34 68/247/34
f 88/248/34 140/249/34 139/250/34 86/251/34
f 106/252/34 149/253/34 148/254/34 104/255/34
f 124/256/34 158/257/34 157/258/34 122/259/34
f 80/260/34 136/261/34 135/230/34 78/229/34
f 98/262/34 145/263/34 144/237/34 96/236/34
f 116/264/34 154/265/34 153/241/34 114/240/34
f 72/266/34 132/267/34 131/245/34 70/244/34
f 90/268/34 141/269/34 140/249/34 88/248/34
f 108/270/34 150/271/34 149/253/34 106/252/34
f 126/272/34 159/273/34 158/257/34 124/256/34
f 82/274/34 137/275/34 136/261/34 80/260/34
f 100/276/34 146/277/34 145/263/34 98/262/34
f 118/278/34 155/279/34 154/265/34 116/264/34
f 74/280/34 133/281/34 132/267/34 72/266/34
f 92/282/34 142/283/34 141/269/34 90/268/34
f 110/284/34 151/285/34 150/271/34 108/270/34
f 128/286/34 160/287/34 159/273/34 126/272/34
f 84/288/34 138/289/34 137/275/34 82/274/34
f 102/290/34 147/291/34 146/277/34 100/276/34
f 120/292/34 156/293/34 155/279/34 118/278/34
f 76/232/34 134/231/34 133/281/34 74/280/34
f 94/239/34 143/238/34 142/283/34 92/282/34
f 112/243/34 152/242/34 151/285/34 110/284/34
f 68/247/34 129/246/34 130/294/34 66/295/34
f 66/295/34 130/294/34 160/287/34 128/286/34
f 86/251/34 139/250/34 138/289/34 84/288/34
f 104/255/34 148/254/34 147/291/34 102/290/34
f 122/259/34 157/258/34 156/293/34 120/292/34
f 144/296/32 97/138/32 99/137/32 143/297/32
f 131/298/18 123/140/18 127/74/18 129/234/18
f 158/299/13 69/144/13 71/143/13 157/300/13
f 145/301/33 95/146/33 97/138/33 144/296/33
f 132/302/19 121/148/19 123/140/19 131/298/19
f 159/303/14 67/150/14 69/144/14 158/299/14
f 146/304/1 93/152/1 95/146/1 145/301/1
f 133/305/20 119/154/20 121/148/20 132/302/20
f 160/306/15 65/156/15 67/150/15 159/303/15
f 147/307/2 91/158/2 93/152/2 146/304/2
f 134/308/21 117/160/21 119/154/21 133/305/21
f 130/235/16 125/73/16 65/156/16 160/306/16
f 148/309/3 89/162/3 91/158/3 147/307/3
f 135/310/22 115/164/22 117/160/22 134/308/22
f 149/311/4 87/166/4 89/162/4 148/309/4
f 136/312/23 113/168/23 115/164/23 135/310/23
f 150/313/5 85/170/5 87/166/5 149/311/5
f 137/314/24 111/172/24 113/168/24 136/312/24
f 151/315/6 83/174/6 85/170/6 150/313/6
f 138/316/25 109/178/25 111/177/25 137/317/25
f 152/318/7 81/180/7 83/174/7 151/315/7
f 139/319/26 107/182/26 109/178/26 138/316/26
f 153/320/8 79/184/8 81/180/8 152/318/8
f 140/321/27 105/186/27 107/182/27 139/319/27
f 154/322/9 77/188/9 79/184/9 153/320/9
f 141/323/28 103/190/28 105/186/28 140/321/28
f 155/324/10 75/192/10 77/188/10 154/322/10
f 142/325/29 101/194/29 103/190/29 141/323/29
f 156/326/11 73/196/11 75/192/11 155/324/11
f 143/297/30 99/137/30 101/194/30 142/325/30
f 157/300/12 71/143/12 73/196/12 156/326/12
